<?xml version="1.0" encoding="UTF-8"?><svg id="Layer_1" xmlns="http://www.w3.org/2000/svg" viewBox="0 0 38.96 19.01"><rect x="1.22" y="1.39" width="36.49" height="2.89" rx="1.45" ry="1.45"/><path d="M33.07,6.19h-10.58s-.03,0,0,.04h-1.84v8.47c0,.67-.56,1.43-1.31,1.43s-1.03-1.26-1.03-1.26V6.21h-2.1s-.06,0-.05-.02H5.87c-.8,0-1.45.65-1.45,1.45s.65,1.45,1.45,1.45h9.66v1.98h-6.39c-.8,0-1.45.65-1.45,1.45s.65,1.45,1.45,1.45h6.39v1.04s.62,3.58,3.86,3.58,3.74-3.07,3.74-3.07v-1.55s6.65,0,6.65,0c.8,0,1.45-.65,1.45-1.45s-.65-1.45-1.45-1.45h-6.68v-1.98s9.96,0,9.96,0c.8,0,1.45-.65,1.45-1.45s-.65-1.45-1.45-1.45Z"/></svg>